<?xml version="1.0" encoding="UTF-8"?>
<svg id="Layer_2" data-name="Layer 2" xmlns="http://www.w3.org/2000/svg" xmlns:xlink="http://www.w3.org/1999/xlink" viewBox="0 0 257.19 129.88">
  <defs>
    <style>
      .cls-1 {
        fill: url(#linear-gradient-2);
      }

      .cls-2 {
        fill: url(#radial-gradient);
      }

      .cls-3 {
        fill: url(#linear-gradient);
      }

      .cls-4 {
        fill: #fff;
      }
    </style>
    <linearGradient id="linear-gradient" x1="206.82" y1="-476.48" x2="205.71" y2="-466.5" gradientTransform="translate(0 -177.49) scale(1 -1)" gradientUnits="userSpaceOnUse">
      <stop offset="0" stop-color="#00477f"/>
      <stop offset="1" stop-color="#2f7db6"/>
    </linearGradient>
    <linearGradient id="linear-gradient-2" x1="202.92" y1="-476.91" x2="201.81" y2="-466.94" xlink:href="#linear-gradient"/>
    <radialGradient id="radial-gradient" cx="241.35" cy="-242.48" fx="241.35" fy="-242.48" r="7.65" gradientTransform="translate(0 -177.49) scale(1 -1)" gradientUnits="userSpaceOnUse">
      <stop offset="0" stop-color="#2f7db6"/>
      <stop offset="1" stop-color="#00477f"/>
    </radialGradient>
  </defs>
  <g id="Layer_1-2" data-name="Layer 1">
    <g>
      <path class="cls-3" d="M178.78,0c-29.59,0-54.6,19.89-62.4,47h4.6c7.66-24.64,30.68-42.58,57.8-42.58s50.62,18.34,58.03,43.39c1.41-.39,2.89-.61,4.42-.63C233.49,19.98,208.44,0,178.78,0Z"/>
      <path class="cls-1" d="M178.78,125.46c-27.13,0-50.14-17.94-57.8-42.58h-4.6c7.81,27.11,32.82,47,62.4,47s54.7-19.98,62.45-47.18c-1.53-.02-3.01-.24-4.42-.63-7.41,25.05-30.61,43.39-58.03,43.39Z"/>
      <path class="cls-4" d="M38.91,80.21l11.18-30.53h4.01l11.18,30.53h-4.01l-3.04-8.6h-12.27l-3.08,8.6h-3.97ZM57.04,68.27l-4.85-13.66h-.25l-4.85,13.66s9.95,0,9.95,0ZM78.03,49.67h3.8v27.16h14.17v3.37h-17.97v-30.53ZM109.7,49.67h3.8v27.16h14.17v3.37h-17.97v-30.53ZM145.16,80.21h-3.79v-30.53h3.79v30.53ZM170.45,52.62c-4.05,0-6.71,2.11-6.71,5.02,0,3.21,3.58,4.39,5.9,4.98l3.04.84c3.29.84,8.65,2.74,8.65,8.43,0,4.98-4.01,8.86-11.09,8.86-6.58,0-10.67-3.42-11.01-8.48h3.88c.34,3.42,3.5,5.02,7.13,5.02,4.22,0,7.38-2.15,7.38-5.48,0-2.95-2.83-4.09-6.03-5.02l-3.75-1.01c-4.81-1.39-7.76-3.84-7.76-7.97,0-5.14,4.6-8.56,10.5-8.56s10.16,3.46,10.33,8.1h-3.71c-.34-2.99-3.08-4.72-6.75-4.72h0ZM193.72,49.67h23.03v3.37h-9.57v27.16h-3.84v-27.16h-9.62v-3.37ZM241.52,80.61c-8.64,0-15.67-7.03-15.67-15.67s7.03-15.67,15.67-15.67,15.67,7.03,15.67,15.67-7.03,15.67-15.67,15.67ZM241.52,52.78c-6.71,0-12.16,5.46-12.16,12.16s5.46,12.16,12.16,12.16,12.16-5.46,12.16-12.16-5.46-12.16-12.16-12.16Z"/>
      <path class="cls-2" d="M241.35,72.64c-4.22,0-7.65-3.43-7.65-7.65s3.43-7.65,7.65-7.65,7.65,3.43,7.65,7.65-3.43,7.65-7.65,7.65Z"/>
      <path class="cls-4" d="M15.67,77.1c-6.71,0-12.16-5.46-12.16-12.16s5.46-12.16,12.16-12.16c4.66,0,8.72,2.64,10.76,6.51h3.84c-2.27-5.85-7.95-10.01-14.6-10.01-8.64,0-15.67,7.03-15.67,15.67s7.03,15.67,15.67,15.67c6.64,0,12.32-4.16,14.6-10.01h-3.84c-2.04,3.86-6.09,6.51-10.76,6.51v-.02Z"/>
    </g>
  </g>
</svg>